<?xml version="1.0" ?>
<!-- Uploaded to: SVG Repo, www.svgrepo.com, Generator: SVG Repo Mixer Tools -->
<svg width="800px" height="800px" viewBox="0 0 512 512" version="1.1" xml:space="preserve" xmlns="http://www.w3.org/2000/svg" xmlns:xlink="http://www.w3.org/1999/xlink">
<style type="text/css">
	.st0{fill:#333333;}
	.st1{fill:none;stroke:#333333;stroke-width:32;stroke-linecap:round;stroke-linejoin:round;stroke-miterlimit:10;}
</style>
<g id="Layer_1"/>
<g id="Layer_2">
<g>
<g>
<g>
<path class="st0" d="M368.98,106.55H143.02c-8.84,0-16-7.16-16-16s7.16-16,16-16h225.96c8.84,0,16,7.16,16,16      S377.82,106.55,368.98,106.55z"/>
</g>
</g>
<g>
<g>
<path class="st0" d="M368.98,216.85H143.02c-8.84,0-16-7.16-16-16s7.16-16,16-16h225.96c8.84,0,16,7.16,16,16      S377.82,216.85,368.98,216.85z"/>
</g>
</g>
<g>
<g>
<path class="st0" d="M368.98,327.15H143.02c-8.84,0-16-7.16-16-16s7.16-16,16-16h225.96c8.84,0,16,7.16,16,16      S377.82,327.15,368.98,327.15z"/>
</g>
</g>
<g>
<g>
<path class="st0" d="M368.98,437.45H143.02c-8.84,0-16-7.16-16-16s7.16-16,16-16h225.96c8.84,0,16,7.16,16,16      S377.82,437.45,368.98,437.45z"/>
</g>
</g>
</g>
</g>
</svg>