<svg width="88" height="33" viewBox="0 0 88 33" fill="none" xmlns="http://www.w3.org/2000/svg">
<path d="M16.482 18.286C16.7007 18.45 16.81 18.614 16.81 18.778C16.81 18.8873 16.7827 18.9693 16.728 19.024L15.826 20.336L8.03602 30.422L7.70802 30.75C7.38002 31.1327 6.97002 31.488 6.47802 31.816C6.04069 32.144 5.52135 32.1713 4.92002 31.898C4.59202 31.6793 4.42802 31.324 4.42802 30.832C4.42802 30.2853 4.48269 29.7113 4.59202 29.11V28.946C4.81069 28.0713 5.05669 27.2787 5.33002 26.568C5.65802 25.8573 5.82202 25.4747 5.82202 25.42C5.93135 25.1467 6.01335 24.8733 6.06802 24.6C6.17735 24.3267 6.28669 24.0533 6.39602 23.78C6.61469 23.0693 6.64202 22.3313 6.47802 21.566C6.31402 21.0193 5.98602 20.664 5.49402 20.5C5.22069 20.4453 4.97469 20.418 4.75602 20.418C4.53735 20.3633 4.31869 20.2813 4.10002 20.172C3.71735 20.0627 3.19802 19.8713 2.54202 19.598C1.94069 19.27 1.42135 18.8053 0.984019 18.204C0.437352 17.4387 0.164019 16.5093 0.164019 15.416C0.0546857 13.94 0.164019 12.5187 0.492019 11.152C0.820019 9.73067 1.36669 8.30934 2.13202 6.888C2.67869 5.84934 3.30735 5.05667 4.01802 4.51001C4.34602 4.182 4.78335 3.96334 5.33002 3.854C6.75135 3.69 7.54402 4.31867 7.70802 5.74C7.76269 6.28667 7.73535 6.83334 7.62602 7.38C7.51669 7.92667 7.40735 8.50067 7.29802 9.102C7.02469 10.578 6.64202 12.0267 6.15002 13.448C5.71269 14.8693 5.19335 16.2907 4.59202 17.712C4.53735 17.8213 4.45535 18.04 4.34602 18.368C4.45535 18.532 4.61935 18.6413 4.83802 18.696C5.05669 18.7507 5.24802 18.8327 5.41202 18.942C5.68535 18.9967 5.93135 19.0513 6.15002 19.106C6.42335 19.1607 6.69669 19.2153 6.97002 19.27C7.89935 19.5433 8.58269 20.008 9.02002 20.664C9.51202 21.2653 9.62135 22.2493 9.34802 23.616C9.23869 24.272 9.04735 24.928 8.77402 25.584C8.50069 26.24 8.22735 26.8687 7.95402 27.47C7.84469 27.7433 7.73535 28.0167 7.62602 28.29C7.51669 28.5087 7.40735 28.7547 7.29802 29.028L15.58 18.45L15.744 18.286C15.7987 18.2313 15.99 18.204 16.318 18.204C16.4274 18.204 16.482 18.2313 16.482 18.286ZM3.44402 15.334C3.66269 14.7327 3.88135 14.1587 4.10002 13.612C4.31869 13.0107 4.51002 12.4093 4.67402 11.808C4.94735 10.8787 5.16602 10.004 5.33002 9.184C5.54869 8.30934 5.68535 7.40734 5.74002 6.478C5.74002 6.36867 5.71269 6.25934 5.65802 6.15C5.65802 5.986 5.65802 5.822 5.65802 5.658C5.16602 6.314 4.72869 7.10667 4.34602 8.036C3.96335 8.96534 3.66269 9.92201 3.44402 10.906C3.22535 11.8353 3.08869 12.7647 3.03402 13.694C2.97935 14.5687 3.03402 15.3067 3.19802 15.908C3.25269 15.7987 3.30735 15.7167 3.36202 15.662C3.41669 15.5527 3.44402 15.4433 3.44402 15.334ZM25.0971 18.532C25.2065 18.7507 25.2065 19.0787 25.0971 19.516C24.8785 19.9533 24.7145 20.254 24.6051 20.418C24.4958 20.582 24.3591 20.7733 24.1951 20.992C24.0858 21.156 23.9765 21.32 23.8671 21.484C23.7031 21.7573 23.5391 22.0033 23.3751 22.222C23.2111 22.386 23.0471 22.5773 22.8831 22.796C22.7738 22.96 22.5825 23.1787 22.3091 23.452C22.1998 23.5613 22.1178 23.6707 22.0631 23.78L21.9811 23.862C21.8718 23.9713 21.8171 24.026 21.8171 24.026L20.8331 25.01C20.5598 25.2833 20.2318 25.584 19.8491 25.912C19.4665 26.24 19.0565 26.5133 18.6191 26.732H18.5371C18.0998 27.0053 17.6351 27.142 17.1431 27.142C17.0885 27.142 17.0338 27.1693 16.9791 27.224C16.9245 27.224 16.8698 27.224 16.8151 27.224V27.142H16.7331C15.6945 27.142 14.9018 26.7047 14.3551 25.83C14.0818 25.2287 13.9451 24.5727 13.9451 23.862C13.9451 23.1513 13.9451 22.6593 13.9451 22.386C14.2185 20.746 14.7651 19.3247 15.5851 18.122C16.4598 16.7553 17.6351 15.99 19.1111 15.826C19.3845 15.7167 19.6578 15.7167 19.9311 15.826C20.4778 15.99 20.7785 16.2633 20.8331 16.646C20.8878 16.974 20.8878 17.2747 20.8331 17.548C20.5598 18.3133 20.2318 19.024 19.8491 19.68C19.4665 20.336 18.9471 20.8827 18.2911 21.32C18.0178 21.484 17.7718 21.6207 17.5531 21.73C17.3345 21.8393 17.0885 21.9487 16.8151 22.058C16.7058 22.4953 16.5965 22.96 16.4871 23.452C16.4325 23.944 16.4598 24.4087 16.5691 24.846C16.6238 24.9553 16.6511 25.0373 16.6511 25.092C16.6511 25.1467 16.6785 25.2287 16.7331 25.338C17.0065 25.9393 17.4711 26.0213 18.1271 25.584C18.8378 25.092 19.5485 24.4633 20.2591 23.698C21.0245 22.878 21.6805 22.0853 22.2271 21.32C22.8285 20.5 23.1565 20.0353 23.2111 19.926C23.2658 19.8167 23.2931 19.762 23.2931 19.762C23.3478 19.7073 23.4025 19.6253 23.4571 19.516L24.1951 18.368C24.2498 18.3133 24.3318 18.2587 24.4411 18.204C24.7145 18.204 24.9331 18.3133 25.0971 18.532ZM18.8651 17.794C18.5918 18.0673 18.2911 18.5047 17.9631 19.106C17.6351 19.6527 17.4165 20.1447 17.3071 20.582C17.7445 20.3087 18.0998 19.8987 18.3731 19.352C18.7011 18.8053 18.8651 18.286 18.8651 17.794ZM33.8276 18.614C33.9916 18.778 34.0736 19.024 34.0736 19.352C34.0189 19.7893 33.8549 20.1993 33.5816 20.582C33.3629 20.9647 33.1442 21.3473 32.9256 21.73C32.6522 22.1673 32.3789 22.6047 32.1056 23.042C31.8869 23.4247 31.6409 23.8347 31.3676 24.272C31.0396 24.7093 30.7116 25.1467 30.3836 25.584C30.0556 25.9667 29.7002 26.3493 29.3176 26.732C29.2082 26.8413 29.0989 26.9233 28.9896 26.978C28.9349 27.0327 28.8529 27.1147 28.7436 27.224L28.0056 27.716C27.5682 27.9347 27.1856 28.044 26.8576 28.044H26.5296H26.2016H26.1196C26.0102 28.044 25.7916 27.9893 25.4636 27.88C25.4089 27.88 25.3816 27.88 25.3816 27.88C25.3816 27.8253 25.3542 27.798 25.2996 27.798C24.8622 27.5793 24.5342 27.2787 24.3156 26.896C24.0969 26.4587 23.9329 26.0213 23.8236 25.584C23.7142 25.092 23.6596 24.6273 23.6596 24.19C23.6049 23.7527 23.5776 23.37 23.5776 23.042C23.5776 22.6593 23.6049 22.222 23.6596 21.73C23.7142 21.238 23.7689 20.7733 23.8236 20.336C23.8782 19.8987 23.9329 19.5433 23.9876 19.27C24.0422 18.942 24.0696 18.778 24.0696 18.778C24.3429 16.8647 24.6982 15.006 25.1356 13.202C25.5729 11.3433 26.0922 9.48467 26.6936 7.626L28.9076 0.738005C28.9076 0.683337 28.9349 0.62867 28.9896 0.574004C29.0442 0.464671 29.1536 0.355337 29.3176 0.246004C29.4816 0.0820043 29.8096 0.0546713 30.3016 0.164005C30.9029 0.273338 31.2856 0.464672 31.4496 0.738005C31.6136 0.956672 31.6682 1.14801 31.6136 1.312C31.1762 2.89734 30.7389 4.45534 30.3016 5.98601C29.9189 7.51667 29.5089 9.07467 29.0716 10.66C28.4702 12.6827 27.9782 14.7053 27.5956 16.728C27.2676 18.7507 26.9669 20.8007 26.6936 22.878C26.6936 23.4247 26.6662 23.8347 26.6116 24.108V25.174C26.6116 25.4473 26.6662 25.6933 26.7756 25.912C26.9396 26.076 27.2676 25.994 27.7596 25.666C28.0329 25.4473 28.2516 25.256 28.4156 25.092C28.6342 24.8733 28.7982 24.7093 28.9076 24.6C29.0169 24.4907 29.0989 24.3813 29.1536 24.272C29.2629 24.1627 29.3449 24.0807 29.3996 24.026C29.9462 23.37 30.4109 22.6867 30.7936 21.976C31.1762 21.2653 31.5862 20.5273 32.0236 19.762L32.6796 18.45C32.7342 18.3407 32.8436 18.2587 33.0076 18.204C33.2262 18.0947 33.4996 18.2313 33.8276 18.614ZM44.5318 18.286C44.6411 18.3407 44.7778 18.45 44.9418 18.614C45.1605 18.778 45.1878 18.9693 45.0238 19.188C44.9691 19.2973 44.7778 19.516 44.4498 19.844C44.1218 20.1173 43.6845 20.4453 43.1378 20.828C42.5911 21.2107 41.9898 21.5933 41.3338 21.976C40.6778 22.3587 39.9945 22.632 39.2838 22.796C39.2838 22.9053 39.2565 22.9873 39.2018 23.042C39.2018 23.042 39.2018 23.0967 39.2018 23.206C39.2018 23.206 39.1745 23.2333 39.1198 23.288C38.7918 24.4907 38.1631 25.6387 37.2338 26.732C36.9605 27.0053 36.6871 27.2513 36.4138 27.47C36.1405 27.6887 35.8398 27.88 35.5118 28.044C34.7465 28.372 33.9265 28.4813 33.0518 28.372C31.7398 28.208 30.9198 27.4427 30.5918 26.076C30.3731 25.2013 30.4005 24.1627 30.6738 22.96C30.9471 21.8667 31.3025 20.828 31.7398 19.844C32.1771 18.86 32.7238 17.9033 33.3798 16.974C33.5438 16.7553 33.7078 16.564 33.8718 16.4C34.0358 16.1813 34.1998 15.99 34.3638 15.826C34.8558 15.4433 35.4025 15.334 36.0038 15.498C36.4958 15.662 36.5778 15.908 36.2498 16.236C36.1405 16.4 36.0311 16.564 35.9218 16.728C35.8125 16.892 35.7031 17.056 35.5938 17.22C35.7031 17.22 35.7578 17.22 35.7578 17.22C35.8125 17.1653 35.8671 17.138 35.9218 17.138C37.1245 16.5913 38.0811 16.8647 38.7918 17.958C39.1198 18.5047 39.3385 19.2153 39.4478 20.09C39.4478 20.254 39.4478 20.418 39.4478 20.582C39.5025 20.746 39.5298 20.91 39.5298 21.074V21.238C40.1311 21.0193 40.6778 20.746 41.1698 20.418C41.7165 20.09 42.2085 19.762 42.6458 19.434C43.1378 19.0513 43.6025 18.6413 44.0398 18.204H44.2038C44.2585 18.204 44.3131 18.2313 44.3678 18.286C44.4225 18.286 44.4771 18.286 44.5318 18.286ZM33.7898 27.306C34.8285 26.8687 35.5938 26.2673 36.0858 25.502C36.5778 24.682 36.9878 23.8073 37.3158 22.878C36.6051 22.6593 36.0038 22.3587 35.5118 21.976C35.0745 21.7027 34.7191 21.32 34.4458 20.828C34.1725 20.336 34.1725 19.7347 34.4458 19.024L34.1178 20.008C34.0085 20.2813 33.8991 20.5547 33.7898 20.828C33.7351 21.1013 33.6805 21.32 33.6258 21.484C33.5165 21.812 33.4071 22.14 33.2978 22.468C33.2431 22.796 33.1611 23.124 33.0518 23.452C32.9425 23.8893 32.8605 24.2993 32.8058 24.682C32.8058 25.01 32.8605 25.3927 32.9698 25.83C33.0245 26.1033 33.1065 26.3767 33.2158 26.65C33.3251 26.8687 33.5165 27.0873 33.7898 27.306ZM37.5618 21.484C37.7258 20.4453 37.6711 19.5707 37.3978 18.86C37.3431 18.6413 37.2611 18.4227 37.1518 18.204C36.9331 17.7667 36.7145 17.5207 36.4958 17.466C36.3865 17.466 36.2498 17.63 36.0858 17.958C35.9765 18.286 35.9218 18.6687 35.9218 19.106C35.9218 20.0353 36.1405 20.664 36.5778 20.992C37.0151 21.2653 37.3158 21.4293 37.4798 21.484H37.5618ZM54.2629 19.106C54.2629 19.4887 54.1535 19.844 53.9349 20.172C53.7162 20.5 53.5249 20.828 53.3609 21.156C53.0875 21.484 52.8415 21.8393 52.6229 22.222C52.4042 22.55 52.1582 22.878 51.8849 23.206C51.7209 23.4793 51.5295 23.7253 51.3109 23.944C51.0922 24.1627 50.8735 24.4087 50.6549 24.682C50.6549 24.682 50.6002 24.7093 50.4909 24.764C50.1629 25.1467 49.7802 25.4747 49.3429 25.748C48.5775 26.2947 47.6482 26.814 46.5549 27.306C45.5162 27.7433 44.5049 27.7433 43.5209 27.306C43.4662 27.2513 43.4389 27.224 43.4389 27.224C43.3842 27.224 43.3295 27.1967 43.2749 27.142C42.7829 26.8687 42.4549 26.5133 42.2909 26.076L42.0449 24.846C41.9902 24.0807 42.0722 23.3153 42.2909 22.55C42.4549 21.7847 42.5642 21.3473 42.6189 21.238C42.8375 20.6367 43.0835 20.0353 43.3569 19.434C43.5755 18.8327 43.9035 18.2313 44.3409 17.63C44.6142 17.1927 44.9422 16.81 45.3249 16.482C45.7622 16.0447 46.4182 15.826 47.2929 15.826C48.3315 15.9353 48.9875 16.2907 49.2609 16.892C49.7529 17.712 49.8349 18.5593 49.5069 19.434C49.3429 19.7073 49.0969 19.844 48.7689 19.844C48.2222 19.9533 47.8122 19.8987 47.5389 19.68C47.4295 19.5707 47.3749 19.4887 47.3749 19.434C47.4295 19.3247 47.4569 19.2153 47.4569 19.106C47.6755 18.5047 47.7029 17.9853 47.5389 17.548C47.4295 17.3293 47.3475 17.138 47.2929 16.974C47.1835 17.1927 47.0195 17.4113 46.8009 17.63C46.3635 18.286 46.0082 18.9693 45.7349 19.68C45.5162 20.336 45.2975 21.0467 45.0789 21.812C44.9149 22.4133 44.7782 23.0147 44.6689 23.616C44.6142 24.2173 44.6415 24.8187 44.7509 25.42C44.8055 25.584 44.8602 25.748 44.9149 25.912C44.9695 26.076 45.0515 26.2673 45.1609 26.486C45.1609 26.486 45.1882 26.4587 45.2429 26.404C45.2975 26.404 45.4342 26.3493 45.6529 26.24H45.8169C46.2542 26.0213 46.8555 25.666 47.6209 25.174C48.3862 24.6273 49.2062 23.8893 50.0809 22.96C50.5182 22.4133 50.9009 21.8667 51.2289 21.32C51.6115 20.7187 51.9669 20.1173 52.2949 19.516L52.9509 18.368C53.0055 18.3133 53.0875 18.2587 53.1969 18.204C53.3062 18.204 53.4155 18.2313 53.5249 18.286C53.6889 18.286 53.8529 18.368 54.0169 18.532C54.1809 18.696 54.2629 18.8873 54.2629 19.106ZM64.2156 18.532C64.325 18.6413 64.3796 18.86 64.3796 19.188C64.3796 19.5707 64.243 19.9533 63.9696 20.336C63.751 20.7187 63.5596 21.074 63.3956 21.402C63.1223 21.7847 62.849 22.1673 62.5756 22.55C62.357 22.878 62.111 23.2333 61.8376 23.616C61.3456 24.3267 60.6896 25.092 59.8696 25.912C59.5963 26.1307 59.323 26.322 59.0496 26.486C58.7763 26.65 58.503 26.7867 58.2296 26.896C57.519 27.06 56.945 26.8687 56.5076 26.322C56.289 26.1033 56.1796 25.8027 56.1796 25.42C56.0703 24.764 56.0703 24.1353 56.1796 23.534L56.3436 22.468L56.0976 22.714C55.9336 22.9873 55.7696 23.2607 55.6056 23.534C55.4416 23.7527 55.2776 23.9713 55.1136 24.19C54.6763 24.7367 54.1843 25.01 53.6376 25.01C52.927 25.1193 52.2983 24.928 51.7516 24.436C51.4783 24.1627 51.287 23.7527 51.1776 23.206C51.1776 22.7687 51.205 22.386 51.2596 22.058C51.3143 21.6753 51.3963 21.2927 51.5056 20.91C51.5603 20.8553 51.8063 20.336 52.2436 19.352C52.681 18.3133 53.3643 17.4113 54.2936 16.646C54.403 16.5367 54.485 16.482 54.5396 16.482C54.649 16.4273 54.7583 16.3453 54.8676 16.236C55.797 15.744 56.699 15.7167 57.5736 16.154C58.011 16.3727 58.2843 16.6187 58.3936 16.892C58.4483 17.056 58.5576 17.138 58.7216 17.138C58.831 17.138 58.913 17.1653 58.9676 17.22C59.0223 17.22 59.077 17.22 59.1316 17.22C59.569 17.4387 59.7876 17.8213 59.7876 18.368L59.5416 19.352C59.3776 20.1173 59.1863 20.8827 58.9676 21.648C58.8036 22.4133 58.6123 23.1787 58.3936 23.944C58.339 24.1627 58.3116 24.3813 58.3116 24.6C58.3116 24.764 58.2843 24.9553 58.2296 25.174C58.339 25.1193 58.4756 25.01 58.6396 24.846C59.0223 24.518 59.405 24.108 59.7876 23.616C60.225 23.0693 60.6076 22.5773 60.9356 22.14C61.2636 21.648 61.537 21.238 61.7556 20.91C62.029 20.5273 62.193 20.3087 62.2476 20.254C62.4663 19.8713 62.685 19.516 62.9036 19.188C63.1223 18.8053 63.3136 18.4773 63.4776 18.204H63.6416C63.6963 18.204 63.833 18.2587 64.0516 18.368V18.45H64.1336C64.1336 18.45 64.161 18.4773 64.2156 18.532ZM57.4096 18.04C57.519 17.8213 57.5736 17.712 57.5736 17.712C57.4643 17.6027 57.3276 17.4933 57.1636 17.384C56.9996 17.2747 56.863 17.1653 56.7536 17.056C56.3163 17.2747 55.9063 17.63 55.5236 18.122C54.5943 19.3793 53.911 20.8827 53.4736 22.632C53.4736 23.0147 53.4463 23.3153 53.3916 23.534C53.501 23.4793 53.583 23.452 53.6376 23.452C53.747 23.3427 53.8563 23.2607 53.9656 23.206C54.3483 22.878 54.6763 22.5227 54.9496 22.14C55.223 21.7027 55.4963 21.2653 55.7696 20.828C56.043 20.3907 56.3163 19.926 56.5896 19.434C56.863 18.942 57.1363 18.4773 57.4096 18.04ZM87.2519 5.82201C87.4159 6.20467 87.2792 6.39601 86.8419 6.39601C86.8419 6.39601 86.7325 6.39601 86.5139 6.39601C84.7645 6.34134 82.9879 6.34134 81.1839 6.39601C79.4345 6.45067 77.6852 6.53267 75.9359 6.642C74.8972 6.69667 73.8585 6.75134 72.8199 6.806C71.8359 6.806 70.8245 6.86067 69.7859 6.97001H69.2939L68.3099 10.66C67.7632 12.6827 67.2985 14.7053 66.9159 16.728C66.5332 18.7507 66.2052 20.8007 65.9319 22.878C65.9319 23.4247 65.9045 23.8347 65.8499 24.108V25.174C65.8499 25.4473 65.9045 25.6933 66.0139 25.912C66.1779 26.076 66.5059 25.994 66.9979 25.666C67.2712 25.4473 67.4899 25.256 67.6539 25.092C67.8725 24.8733 68.0365 24.7093 68.1459 24.6C68.2552 24.4907 68.3372 24.3813 68.3919 24.272C68.5012 24.1627 68.5832 24.0807 68.6379 24.026C69.1845 23.37 69.6492 22.6867 70.0319 21.976C70.4145 21.2653 70.8245 20.5273 71.2619 19.762L71.9179 18.45C71.9725 18.3407 72.0819 18.2587 72.2459 18.204C72.4645 18.0947 72.7379 18.2313 73.0659 18.614C73.2299 18.778 73.3119 19.024 73.3119 19.352C73.2572 19.7893 73.0932 20.1993 72.8199 20.582C72.6012 20.9647 72.3825 21.3473 72.1639 21.73C71.8905 22.1673 71.6172 22.6047 71.3439 23.042C71.1252 23.4247 70.8792 23.8347 70.6059 24.272C70.2779 24.7093 69.9499 25.1467 69.6219 25.584C69.2939 25.9667 68.9385 26.3493 68.5559 26.732C68.4465 26.8413 68.3372 26.9233 68.2279 26.978C68.1732 27.0327 68.0912 27.1147 67.9819 27.224L67.2439 27.716C66.8065 27.9347 66.4239 28.044 66.0959 28.044H65.7679H65.4399H65.3579C65.2485 28.044 65.0299 27.9893 64.7019 27.88C64.7019 27.88 64.6472 27.8527 64.5379 27.798C64.1005 27.5793 63.7725 27.2787 63.5539 26.896C63.3352 26.4587 63.1712 26.0213 63.0619 25.584C62.9525 25.092 62.8979 24.6273 62.8979 24.19C62.8432 23.7527 62.8159 23.37 62.8159 23.042C62.8159 22.714 62.8432 22.304 62.8979 21.812C62.9525 21.32 63.0072 20.8553 63.0619 20.418C63.1165 19.8713 63.1985 19.352 63.3079 18.86V18.778C63.5812 16.8647 63.9365 15.006 64.3739 13.202C64.8112 11.3433 65.3305 9.48467 65.9319 7.626C65.9319 7.57134 65.9865 7.43467 66.0959 7.216H65.7679C64.8385 7.32534 63.9092 7.43467 62.9799 7.54401C62.0505 7.59867 61.1212 7.68067 60.1919 7.79C58.8252 7.954 57.4859 8.14534 56.1739 8.364C54.8072 8.58267 53.4405 8.80134 52.0739 9.02001C51.7459 9.07467 51.4179 9.12934 51.0899 9.184C50.7619 9.184 50.4612 9.04734 50.1879 8.774C49.9145 8.71934 49.7505 8.55534 49.6959 8.28201C49.5319 8.00867 49.6412 7.81734 50.0239 7.70801C51.2812 7.48934 52.5659 7.27067 53.8779 7.052C55.1352 6.83334 56.3925 6.61467 57.6499 6.39601C58.7432 6.232 59.8639 6.09534 61.0119 5.98601C62.1052 5.87667 63.1985 5.76734 64.2919 5.658C64.6745 5.60334 65.0299 5.576 65.3579 5.576C65.7405 5.576 66.1505 5.576 66.5879 5.576C66.8612 4.756 67.1072 3.936 67.3259 3.116C67.5992 2.296 67.8725 1.50334 68.1459 0.738005C68.1459 0.683337 68.1459 0.656003 68.1459 0.656003C68.2005 0.656003 68.2279 0.62867 68.2279 0.574004C68.2825 0.464671 68.3919 0.355337 68.5559 0.246004C68.7199 0.0820043 69.0479 0.0546713 69.5399 0.164005C70.1412 0.273338 70.5239 0.464672 70.6879 0.738005C70.9065 0.956672 70.9612 1.14801 70.8519 1.312C70.6879 2.02267 70.4965 2.70601 70.2779 3.36201C70.1139 4.018 69.9499 4.70134 69.7859 5.41201H69.8679C71.3439 5.35734 72.8199 5.30267 74.2959 5.24801C75.7719 5.19334 77.2479 5.13867 78.7239 5.08401H84.9559C85.5025 5.08401 85.9125 5.11134 86.1859 5.166C86.6779 5.27534 87.0332 5.494 87.2519 5.82201ZM81.3921 18.532C81.5014 18.7507 81.5014 19.0787 81.3921 19.516C81.1734 19.9533 81.0094 20.254 80.9001 20.418C80.7907 20.582 80.6541 20.7733 80.4901 20.992C80.3807 21.156 80.2714 21.32 80.1621 21.484C79.9981 21.7573 79.8341 22.0033 79.6701 22.222C79.5061 22.386 79.3421 22.5773 79.1781 22.796C79.0687 22.96 78.8774 23.1787 78.6041 23.452C78.4947 23.5613 78.4127 23.6707 78.3581 23.78L78.2761 23.862C78.1667 23.9713 78.1121 24.026 78.1121 24.026L77.1281 25.01C76.8547 25.2833 76.5267 25.584 76.1441 25.912C75.7614 26.24 75.3514 26.5133 74.9141 26.732H74.8321C74.3947 27.0053 73.9301 27.142 73.4381 27.142C73.3834 27.142 73.3287 27.1693 73.2741 27.224C73.2194 27.224 73.1647 27.224 73.1101 27.224V27.142H73.0281C71.9894 27.142 71.1967 26.7047 70.6501 25.83C70.3767 25.2287 70.2401 24.5727 70.2401 23.862C70.2401 23.1513 70.2401 22.6593 70.2401 22.386C70.5134 20.746 71.0601 19.3247 71.8801 18.122C72.7547 16.7553 73.9301 15.99 75.4061 15.826C75.6794 15.7167 75.9527 15.7167 76.2261 15.826C76.7727 15.99 77.0734 16.2633 77.1281 16.646C77.1827 16.974 77.1827 17.2747 77.1281 17.548C76.8547 18.3133 76.5267 19.024 76.1441 19.68C75.7614 20.336 75.2421 20.8827 74.5861 21.32C74.3127 21.484 74.0667 21.6207 73.8481 21.73C73.6294 21.8393 73.3834 21.9487 73.1101 22.058C73.0007 22.4953 72.8914 22.96 72.7821 23.452C72.7274 23.944 72.7547 24.4087 72.8641 24.846C72.9187 24.9553 72.9461 25.0373 72.9461 25.092C72.9461 25.1467 72.9734 25.2287 73.0281 25.338C73.3014 25.9393 73.7661 26.0213 74.4221 25.584C75.1327 25.092 75.8434 24.4633 76.5541 23.698C77.3194 22.878 77.9754 22.0853 78.5221 21.32C79.1234 20.5 79.4514 20.0353 79.5061 19.926C79.5607 19.8167 79.5881 19.762 79.5881 19.762C79.6427 19.7073 79.6974 19.6253 79.7521 19.516L80.4901 18.368C80.5447 18.3133 80.6267 18.2587 80.7361 18.204C81.0094 18.204 81.2281 18.3133 81.3921 18.532ZM75.1601 17.794C74.8867 18.0673 74.5861 18.5047 74.2581 19.106C73.9301 19.6527 73.7114 20.1447 73.6021 20.582C74.0394 20.3087 74.3947 19.8987 74.6681 19.352C74.9961 18.8053 75.1601 18.286 75.1601 17.794Z" fill="#0CA296"/>
</svg>
